<svg height="64" viewBox="0 0 64 64" width="64" xmlns="http://www.w3.org/2000/svg"><g id="flat"><path d="m41.488 53h-24.976l1.85-4h21.276z" fill="#e97424"/><path d="m21 6h16v12h-16z" fill="#4f83d1"/><path d="m57 3h4v18h-4z" fill="#fcf05a"/><path d="m57 21-16-3v-12l16-3z" fill="#4da6ea"/><path d="m37 6h4v12h-4z" fill="#fcf05a"/><path d="m21 18-14-2v-8l14-2z" fill="#4da6ea"/><path d="m3 8h4v8h-4z" fill="#fcf05a"/><path d="m54 11h-2v-1.847l-5.858.837-.284-1.98 7-1a1 1 0 0 1 1.142.99z" fill="#f4f4e6"/><path d="m52 13h2v2h-2z" fill="#f4f4e6"/><path d="m33 22v-4a4 4 0 0 0 -8 0v4h-4v4h16v-4z" fill="#e97424"/><path d="m28 21h2v2h-2z" fill="#fff69a"/><path d="m28 17h2v2h-2z" fill="#fff69a"/><path d="m49 61h-5l-15-35h5z" fill="#f9bb4b"/><path d="m9 61h5l15-35h-5z" fill="#f9bb4b"/><g fill="#f4f4e6"><path d="m12 14h-2v-3a1 1 0 0 1 .858-.99l7-1 .284 1.98-6.142.877z"/><path d="m24 9h2v2h-2z"/><path d="m28 9h2v2h-2z"/></g></g></svg>