<?xml version="1.0" encoding="UTF-8"?>
<svg width="13px" height="16px" viewBox="0 0 13 16" version="1.1" xmlns="http://www.w3.org/2000/svg" xmlns:xlink="http://www.w3.org/1999/xlink">
    <!-- Generator: Sketch 48.2 (47327) - http://www.bohemiancoding.com/sketch -->
    <title>Combined Shape</title>
    <desc>Created with Sketch.</desc>
    <defs></defs>
    <g id="Destek-Sayfası---Taslak-II" stroke="none" stroke-width="1" fill="none" fill-rule="evenodd" transform="translate(-488.000000, -276.000000)">
        <g id="Group-16" transform="translate(340.000000, 120.000000)" fill="#64ACFF" fill-rule="nonzero">
            <g id="Group-9" transform="translate(128.000000, 144.000000)">
                <path d="M20.03436,13.8718421 C20.8188376,13.948173 26.4927433,12 26.4927433,12 C26.4927433,12 32.1793019,13.948173 32.965587,13.8770465 L32.9999305,20.6739673 C33.0066463,21.9546724 32.5265863,23.1937881 31.6496891,24.1591673 L31.6334212,24.17825 C31.0259261,24.8510805 30.3647746,25.4774988 29.6559593,26.051827 C28.6883955,26.822746 27.626079,27.4770094 26.4927433,28 C25.3637348,27.4762989 24.3056939,26.8220518 23.3421802,26.051827 C22.6327398,25.4725138 21.9715718,24.8408596 21.3647183,24.1626369 L21.3484503,24.1435542 C20.4759098,23.181969 19.996754,21.9490775 20.0000166,20.6739673 L20.03436,13.8718421 Z M25.5871598,22.1988507 L30.5579277,17.6849181 L29.2149166,16.4653583 L25.5871598,19.7614659 L23.7832229,18.1203513 L22.4402117,19.3399111 L25.5871598,22.1988507 Z" id="Combined-Shape"></path>
            </g>
        </g>
    </g>
</svg>