<svg height="64" viewBox="0 0 64 64" width="64" xmlns="http://www.w3.org/2000/svg"><g id="flat"><path d="m14 31h36v8h-36z" fill="#98ecb7"/><rect fill="#f98c96" height="4" rx="2" width="40" x="12" y="27"/><path d="m37 34h2v2h-2z" fill="#f4f4e6"/><path d="m56 43c-5-3-6-4-6-4h-36s-1 1-6 4-5 6-5 6h58s0-3-5-6z" fill="#f98c96"/><g fill="#f9bb4b"><path d="m13 53a4 4 0 0 0 4-4h-8a4 4 0 0 0 4 4z"/><path d="m32 55a6 6 0 0 0 6-6h-12a6 6 0 0 0 6 6z"/><path d="m51 53a4 4 0 0 0 4-4h-8a4 4 0 0 0 4 4z"/></g><circle cx="32" cy="35" fill="#fcf05a" r="2"/><path d="m25 34h2v2h-2z" fill="#f4f4e6"/><circle cx="20" cy="35" fill="#fcf05a" r="2"/><circle cx="44" cy="35" fill="#fcf05a" r="2"/><path d="m53 46h-11v-2h7.39l-1.905-1.143 1.03-1.714 5 3a1 1 0 0 1 -.515 1.857z" fill="#f4f4e6"/><path d="m20 46h-9a1 1 0 0 1 -.515-1.857l5-3 1.03 1.714-1.905 1.143h5.39z" fill="#f4f4e6"/><path d="m32 10a17 17 0 0 0 -17 17h34a17 17 0 0 0 -17-17z" fill="#4da6ea"/><path d="m43 22h2v2h-2z" fill="#f4f4e6"/><path d="m42.132 20.5a10.412 10.412 0 0 0 -9.99-5.506l-.284-1.98a12.281 12.281 0 0 1 12.01 6.486z" fill="#f4f4e6"/><path d="m13 18a3 3 0 0 1 -3-3 1 1 0 0 0 -2 0 3 3 0 0 1 -3 3 1 1 0 0 0 0 2 3 3 0 0 1 3 3 1 1 0 0 0 2 0 3 3 0 0 1 3-3 1 1 0 0 0 0-2zm-4 2.031a4.988 4.988 0 0 0 -1.031-1.031 4.988 4.988 0 0 0 1.031-1.031 4.988 4.988 0 0 0 1.031 1.031 4.988 4.988 0 0 0 -1.031 1.031z" fill="#d9176c"/><path d="m58 12a3 3 0 0 1 -3-3 1 1 0 0 0 -2 0 3 3 0 0 1 -3 3 1 1 0 0 0 0 2 3 3 0 0 1 3 3 1 1 0 0 0 2 0 3 3 0 0 1 3-3 1 1 0 0 0 0-2zm-4 2.031a4.988 4.988 0 0 0 -1.031-1.031 4.988 4.988 0 0 0 1.031-1.031 4.988 4.988 0 0 0 1.031 1.031 4.988 4.988 0 0 0 -1.031 1.031z" fill="#d9176c"/></g></svg>