<svg height="64" viewBox="0 0 64 64" width="64" xmlns="http://www.w3.org/2000/svg"><g id="flat"><path d="m53.01 41.34q-.945-1.155-2.01-2.34l-1 4c.42.55.83 1.1 1.21 1.64 4.37 6.06 6.77 11.38 5.79 12.36-1.01 1.01-5.72-1.5-11.9-6.1a160.269 160.269 0 0 1 -17.1-14.9 161.625 161.625 0 0 1 -14.91-17.11c-4.59-6.17-7.1-10.88-6.09-11.89.98-.98 6.06 1.53 12.31 5.82.55.38 1.12.77 1.69 1.18l3-2c-.46-.35-.91-.68-1.35-1.01-9.4-6.9-16.21-9.43-18.65-6.99-2.37 2.37.5 9.65 6.97 18.67a133.225 133.225 0 0 0 14.03 16.33 133.787 133.787 0 0 0 16.32 14.02c9.03 6.47 16.31 9.35 18.68 6.98 2.28-2.28.36-9.69-6.99-18.66z" fill="#fcf05a"/><path d="m25 39a133.787 133.787 0 0 0 16.32 14.02 22.951 22.951 0 0 1 -14.09 1.48 22.168 22.168 0 0 1 -4.8-1.59 23.017 23.017 0 0 1 -13.01-16.51 23.612 23.612 0 0 1 -.42-4.4 24.006 24.006 0 0 1 .12-2.41 22.907 22.907 0 0 1 1.85-6.92 133.225 133.225 0 0 0 14.03 16.33z" fill="#91cdf2"/><path d="m55 32a22.733 22.733 0 0 1 -1.99 9.34 21.044 21.044 0 0 1 -1.8 3.3 22.755 22.755 0 0 1 -6.11 6.26 160.269 160.269 0 0 1 -17.1-14.9 161.625 161.625 0 0 1 -14.91-17.11 23.324 23.324 0 0 1 6.22-6.07 23.772 23.772 0 0 1 2.4-1.39c.31-.16.62-.3.94-.44a22.041 22.041 0 0 1 6.11-1.75 21.679 21.679 0 0 1 3.24-.24 23 23 0 0 1 20.89 13.38 23.193 23.193 0 0 1 2.11 9.62z" fill="#91cdf2"/><path d="m11 47a3 3 0 0 1 -3-3 1 1 0 0 0 -2 0 3 3 0 0 1 -3 3 1 1 0 0 0 0 2 3 3 0 0 1 3 3 1 1 0 0 0 2 0 3 3 0 0 1 3-3 1 1 0 0 0 0-2zm-4 2.031a4.988 4.988 0 0 0 -1.031-1.031 4.988 4.988 0 0 0 1.031-1.031 4.988 4.988 0 0 0 1.031 1.031 4.988 4.988 0 0 0 -1.031 1.031z" fill="#fcf05a"/><path d="m61 15a3 3 0 0 1 -3-3 1 1 0 0 0 -2 0 3 3 0 0 1 -3 3 1 1 0 0 0 0 2 3 3 0 0 1 3 3 1 1 0 0 0 2 0 3 3 0 0 1 3-3 1 1 0 0 0 0-2zm-4 2.031a4.988 4.988 0 0 0 -1.031-1.031 4.988 4.988 0 0 0 1.031-1.031 4.988 4.988 0 0 0 1.031 1.031 4.988 4.988 0 0 0 -1.031 1.031z" fill="#fcf05a"/><g fill="#f98c96"><path d="m4 37h2v2h-2z"/><path d="m58 35h2v2h-2z"/><path d="m49 8h2v2h-2z"/><path d="m35 58h2v2h-2z"/></g><circle cx="44" cy="42" fill="#4da6ea" r="2"/><circle cx="40" cy="34" fill="#4da6ea" r="3"/><circle cx="36" cy="16" fill="#4da6ea" r="2"/><path d="m31 24s-1 3 0 5c0 0-5 0-5-6 0 0 0-4-3-6-1.22-.81-1.45-3.43-1.29-5.57a22.383 22.383 0 0 1 7.05-2.19c-.04 2.48.16 6.14 1.24 7.76 2 3 1 7 1 7z" fill="#4f83d1"/><path d="m54.61 27.81c-2.39-1.45-3.83-.09-9.61-.81-8-1-6-5-6-5 5 1 4 1 9 0a12.226 12.226 0 0 1 4.89.38 22.189 22.189 0 0 1 1.72 5.43z" fill="#4f83d1"/><path d="m27.23 54.5a22.168 22.168 0 0 1 -4.8-1.59 25.573 25.573 0 0 1 -.43-3.91c0-3 1-4-2-6 0 0 4-2 6 3 1.2 2.99.61 6.17 1.23 8.5z" fill="#4f83d1"/><path d="m16 40a23.515 23.515 0 0 1 -6.58-3.6 23.612 23.612 0 0 1 -.42-4.4 24.006 24.006 0 0 1 .12-2.41 25.627 25.627 0 0 0 3.88 3.41c4 3 3 5 3 7z" fill="#4f83d1"/><path d="m19 19h2v2h-2z" fill="#f98c96"/><path d="m48 31h2v2h-2z" fill="#f98c96"/></g></svg>